<svg width="49" height="47" viewBox="0 0 49 47" fill="none" xmlns="http://www.w3.org/2000/svg">
<path d="M38.1698 8.84756H36.8339V7.51558C36.8339 6.77964 36.236 6.18359 35.4979 6.18359C34.7598 6.18359 34.162 6.77964 34.162 7.51558V8.84756H29.7083V7.51558C29.7083 6.77964 29.1105 6.18359 28.3724 6.18359C27.6359 6.18359 27.0365 6.77964 27.0365 7.51558V8.84756H22.5828L22.5845 7.51558C22.5845 6.77964 21.9867 6.18359 21.2485 6.18359C20.5104 6.18359 19.9126 6.77964 19.9126 7.51558V8.84756H15.4589V7.51558C15.4589 6.77964 14.8611 6.18359 14.123 6.18359C13.3849 6.18359 12.7871 6.77964 12.7871 7.51558V8.84756H11.4511C9.24184 8.84756 7.44336 10.6407 7.44336 12.8435V36.8192C7.44336 39.022 9.24184 40.8152 11.4511 40.8152H38.1697C40.3791 40.8152 42.1775 39.022 42.1775 36.8192V12.8435C42.1775 10.6407 40.3791 8.84756 38.1698 8.84756ZM11.4512 11.5115H12.7871V12.8435C12.7871 13.5795 13.3849 14.1755 14.123 14.1755C14.8612 14.1755 15.459 13.5795 15.459 12.8435V11.5115H19.9126V12.8435C19.9126 13.5795 20.5105 14.1755 21.2486 14.1755C21.985 14.1755 22.5845 13.5795 22.5845 12.8435V11.5115H27.0382L27.0365 12.8435C27.0365 13.5795 27.6343 14.1755 28.3724 14.1755C29.1106 14.1755 29.7084 13.5795 29.7084 12.8435V11.5115H34.162V12.8435C34.162 13.5795 34.7598 14.1755 35.498 14.1755C36.2361 14.1755 36.8339 13.5795 36.8339 12.8435V11.5115H38.1698C38.9063 11.5115 39.5058 12.1092 39.5058 12.8435V16.8395H10.1153V12.8435C10.1153 12.1092 10.7147 11.5115 11.4512 11.5115ZM38.1698 38.1512H11.4512C10.7147 38.1512 10.1153 37.5535 10.1153 36.8192V19.5034H39.5057V36.8192C39.5057 37.5535 38.9062 38.1512 38.1698 38.1512Z" fill="#d1d5db"/>
<path d="M15.7663 22.168H14.123C13.3849 22.168 12.7871 22.764 12.7871 23.5C12.7871 24.2359 13.3849 24.8319 14.123 24.8319H15.7663C16.5044 24.8319 17.1022 24.2359 17.1022 23.5C17.1022 22.764 16.5044 22.168 15.7663 22.168Z" fill="#d1d5db"/>
<path d="M22.3434 22.168H20.7002C19.9621 22.168 19.3643 22.764 19.3643 23.5C19.3643 24.2359 19.9621 24.8319 20.7002 24.8319H22.3434C23.0815 24.8319 23.6793 24.2359 23.6793 23.5C23.6793 22.764 23.0815 22.168 22.3434 22.168Z" fill="#d1d5db"/>
<path d="M28.9206 22.168H27.2773C26.5392 22.168 25.9414 22.764 25.9414 23.5C25.9414 24.2359 26.5392 24.8319 27.2773 24.8319H28.9206C29.6587 24.8319 30.2565 24.2359 30.2565 23.5C30.2565 22.764 29.6587 22.168 28.9206 22.168Z" fill="#d1d5db"/>
<path d="M35.4977 22.168H33.8545C33.1164 22.168 32.5186 22.764 32.5186 23.5C32.5186 24.2359 33.1164 24.8319 33.8545 24.8319H35.4977C36.2358 24.8319 36.8336 24.2359 36.8336 23.5C36.8336 22.764 36.2358 22.168 35.4977 22.168Z" fill="#d1d5db"/>
<path d="M15.7663 27.4961H14.123C13.3849 27.4961 12.7871 28.0921 12.7871 28.8281C12.7871 29.564 13.3849 30.1601 14.123 30.1601H15.7663C16.5044 30.1601 17.1022 29.564 17.1022 28.8281C17.1022 28.0921 16.5044 27.4961 15.7663 27.4961Z" fill="#d1d5db"/>
<path d="M22.3434 27.4961H20.7002C19.9621 27.4961 19.3643 28.0921 19.3643 28.8281C19.3643 29.564 19.9621 30.1601 20.7002 30.1601H22.3434C23.0815 30.1601 23.6793 29.564 23.6793 28.8281C23.6793 28.0921 23.0815 27.4961 22.3434 27.4961Z" fill="#d1d5db"/>
<path d="M28.9206 27.4961H27.2773C26.5392 27.4961 25.9414 28.0921 25.9414 28.8281C25.9414 29.564 26.5392 30.1601 27.2773 30.1601H28.9206C29.6587 30.1601 30.2565 29.564 30.2565 28.8281C30.2565 28.0921 29.6587 27.4961 28.9206 27.4961Z" fill="#d1d5db"/>
<path d="M35.4977 27.4961H33.8545C33.1164 27.4961 32.5186 28.0921 32.5186 28.8281C32.5186 29.564 33.1164 30.1601 33.8545 30.1601H35.4977C36.2358 30.1601 36.8336 29.564 36.8336 28.8281C36.8336 28.0921 36.2358 27.4961 35.4977 27.4961Z" fill="#d1d5db"/>
<path d="M15.7663 32.8223H14.123C13.3849 32.8223 12.7871 33.4183 12.7871 34.1542C12.7871 34.8902 13.3849 35.4862 14.123 35.4862H15.7663C16.5044 35.4862 17.1022 34.8902 17.1022 34.1542C17.1022 33.4183 16.5044 32.8223 15.7663 32.8223Z" fill="#d1d5db"/>
<path d="M22.3434 32.8223H20.7002C19.9621 32.8223 19.3643 33.4183 19.3643 34.1542C19.3643 34.8902 19.9621 35.4862 20.7002 35.4862H22.3434C23.0815 35.4862 23.6793 34.8902 23.6793 34.1542C23.6793 33.4183 23.0815 32.8223 22.3434 32.8223Z" fill="#d1d5db"/>
<path d="M28.9206 32.8223H27.2773C26.5392 32.8223 25.9414 33.4183 25.9414 34.1542C25.9414 34.8902 26.5392 35.4862 27.2773 35.4862H28.9206C29.6587 35.4862 30.2565 34.8902 30.2565 34.1542C30.2565 33.4183 29.6587 32.8223 28.9206 32.8223Z" fill="#d1d5db"/>
<path d="M35.4977 32.8223H33.8545C33.1164 32.8223 32.5186 33.4183 32.5186 34.1542C32.5186 34.8902 33.1164 35.4862 33.8545 35.4862H35.4977C36.2358 35.4862 36.8336 34.8902 36.8336 34.1542C36.8336 33.4183 36.2358 32.8223 35.4977 32.8223Z" fill="#d1d5db"/>
</svg>
