<svg width="34" height="32" viewBox="0 0 34 32" fill="none" xmlns="http://www.w3.org/2000/svg">
<path d="M16.9998 1.44192C17.2573 1.44192 17.5153 1.52891 17.7121 1.70242L23.7557 7.03992C23.8997 7.16681 24.0335 7.22737 24.145 7.22737C24.3395 7.22737 24.468 7.04425 24.468 6.70732V5.41969C24.468 4.88906 24.8898 4.45841 25.4096 4.45841H27.7612C28.281 4.45841 28.7028 4.88906 28.7028 5.41969V10.4472C28.7028 10.9778 29.0215 11.6901 29.4151 12.0376L32.3505 14.6302C32.7441 14.9777 32.641 15.2593 32.1212 15.2593H29.6444C29.1246 15.2593 28.7028 15.6405 28.7028 16.1105C28.7028 16.5806 28.7028 16.9618 28.7028 16.9618V29.5973C28.7028 30.1279 28.281 30.5586 27.7612 30.5586H6.23882C5.71907 30.5586 5.29723 30.1279 5.29723 29.5973V16.2211C5.29723 15.6905 4.8754 15.2598 4.35564 15.2598H1.87879C1.35903 15.2598 1.25593 14.9782 1.64951 14.6307L16.2879 1.70291C16.4843 1.52843 16.7423 1.44192 16.9998 1.44192ZM16.9998 0C16.392 0 15.811 0.21725 15.3638 0.611374L0.725344 13.5401C-0.236961 14.3894 0.00173175 15.3146 0.0977739 15.578C0.193816 15.8419 0.606232 16.7013 1.87879 16.7013H3.88485V29.5968C3.88485 30.9219 4.94084 32 6.23882 32H27.7612C29.0592 32 30.1152 30.9219 30.1152 29.5968V16.9613V16.7013H32.1212C33.3938 16.7013 33.8062 15.8419 33.9023 15.578C33.9983 15.3146 34.237 14.3889 33.2742 13.5396L30.3393 10.947C30.2498 10.8605 30.1208 10.5726 30.1152 10.4443V5.41969C30.1152 4.09457 29.0592 3.01649 27.7612 3.01649H25.4096C24.3823 3.01649 23.5066 3.69179 23.186 4.63L18.6363 0.611854C18.1885 0.217249 17.6076 0 16.9998 0Z" fill="#FFF"/>
</svg>
