<svg width="44" height="30" viewBox="0 0 44 30" fill="none" xmlns="http://www.w3.org/2000/svg">
<path fill-rule="evenodd" clip-rule="evenodd" d="M13.1817 13.8279C13.9125 14.6024 14.815 15.3169 15.2967 15.5702C16.2862 16.0906 17.5693 15.7537 18.1625 14.8177C18.7557 13.8816 18.4345 12.7009 17.4451 12.1805C16.9795 11.9357 15.9081 11.5962 14.8423 11.4027C14.8318 11.1353 14.7743 10.8725 14.6729 10.6255C15.485 9.94154 16.2241 9.13864 16.4994 8.7043C17.0926 7.76828 16.7714 6.58761 15.7819 6.06718C14.7925 5.5468 13.5094 5.88371 12.9162 6.81974C12.651 7.2381 12.2759 8.16706 12.0304 9.11302C11.6986 9.14131 11.3727 9.22691 11.0707 9.36508C10.3776 8.66553 9.58081 8.04437 9.13854 7.81179C8.14908 7.29136 6.86603 7.62828 6.27274 8.56435C5.67951 9.50038 6.00072 10.681 6.99018 11.2015C7.44933 11.443 8.49759 11.7765 9.54872 11.9711C9.58629 12.2349 9.66989 12.4908 9.79665 12.7278C8.97112 13.4179 8.21503 14.2373 7.93589 14.6777C7.34266 15.6137 7.66387 16.7944 8.65333 17.3148C9.64285 17.8352 10.9259 17.4983 11.5191 16.5622C11.8079 16.1065 12.2272 15.045 12.4673 14.0155C12.7124 13.9836 12.953 13.9204 13.1817 13.8279ZM13.488 12.2564C13.0566 12.9372 12.1234 13.1822 11.4038 12.8037C10.6842 12.4253 10.4506 11.5666 10.882 10.8858C11.3135 10.2051 12.2466 9.96004 12.9662 10.3385C13.6858 10.717 13.9195 11.5757 13.488 12.2564Z" fill="#474AEE"/>
<path fill-rule="evenodd" clip-rule="evenodd" d="M21.7136 11.6209C21.7136 16.4004 17.4603 20.275 12.2136 20.275C6.96691 20.275 2.71362 16.4004 2.71362 11.6209C2.71362 6.84136 6.96691 2.9668 12.2136 2.9668C17.4603 2.9668 21.7136 6.84136 21.7136 11.6209ZM20.6279 11.6209C20.6279 15.8542 16.8607 19.2859 12.2136 19.2859C7.56655 19.2859 3.79934 15.8542 3.79934 11.6209C3.79934 7.38761 7.56655 3.95584 12.2136 3.95584C16.8607 3.95584 20.6279 7.38761 20.6279 11.6209Z" fill="#474AEE"/>
<path d="M24.9709 5.43972H40.1709V4.45068H24.9709V5.43972Z" fill="#474AEE"/>
<path d="M40.1709 7.91214H24.9709V6.9231H40.1709V7.91214Z" fill="#474AEE"/>
<path d="M24.9709 10.385H40.1709V9.396H24.9709V10.385Z" fill="#474AEE"/>
<path d="M40.1709 12.8574H24.9709V11.8684H40.1709V12.8574Z" fill="#474AEE"/>
<path d="M24.9709 15.3299H34.1995V14.3408H24.9709V15.3299Z" fill="#474AEE"/>
<path d="M40.1722 15.3299H35.8293V14.3408H40.1722V15.3299Z" fill="#474AEE"/>
<path fill-rule="evenodd" clip-rule="evenodd" d="M24.9709 16.8137V22.2534H40.1709V16.8137H24.9709ZM26.0567 21.2644V17.8028H39.0852V21.2644H26.0567Z" fill="#474AEE"/>
<path fill-rule="evenodd" clip-rule="evenodd" d="M0 0V27.1986H4.88571V29.6712H15.2V27.1986H28.2286V29.6712H38.5429V27.1986H43.4286V0H0ZM1.08571 0.989039H42.3429V24.2315H1.08571V0.989039ZM1.08571 26.2095V25.2205H42.3429V26.2095H1.08571ZM5.97143 28.6821V27.1986H14.1143V28.6821H5.97143ZM37.4571 27.1986V28.6821H29.3143V27.1986H37.4571Z" fill="#474AEE"/>
</svg>
