<svg width="60" height="60" viewBox="0 0 60 60" fill="none" xmlns="http://www.w3.org/2000/svg">
<path d="M30.0002 37.5C21.0002 37.5 13.751 40.2492 13.751 43.7508C13.751 47.25 21.0002 50.0016 30.0002 50.0016C39.0002 50.0016 46.2494 47.2524 46.2494 43.7508C46.2494 40.2493 39.0002 37.5 30.0002 37.5ZM30.0002 46.2492C23.7494 46.2492 18.7502 45.1242 18.7502 43.7484C18.7502 42.3726 23.7494 41.2476 30.0002 41.2476C36.251 41.2476 41.2502 42.3726 41.2502 43.7484C41.2502 45.1242 36.251 46.2492 30.0002 46.2492Z" fill="#4b5563"/>
<path d="M30 10C23.7492 10 18.75 14.9992 18.75 21.25C18.75 27.5008 30 44.9992 30 44.9992C30 44.9992 41.25 27.4984 41.25 21.25C41.25 14.9992 36.2508 10 30 10ZM30 26.2492C27.2508 26.2492 25.0008 23.9992 25.0008 21.25C25.0008 18.5008 27.2508 16.2508 30 16.2508C32.7492 16.2508 34.9992 18.5008 34.9992 21.25C34.9992 23.9992 32.7492 26.2492 30 26.2492Z" fill="#4b5563"/>
</svg>
