<svg width="66" height="50" viewBox="0 0 66 50" fill="none" xmlns="http://www.w3.org/2000/svg">
<path fill-rule="evenodd" clip-rule="evenodd" d="M19.8503 22.8585C20.9508 24.1388 22.3097 25.3199 23.0352 25.7387C24.5253 26.5991 26.4574 26.042 27.3507 24.4947C28.2441 22.9474 27.7604 20.9955 26.2703 20.1353C25.5693 19.7306 23.9559 19.1693 22.3509 18.8496C22.335 18.4074 22.2485 17.9731 22.0957 17.5647C23.3187 16.4341 24.4317 15.1068 24.8462 14.3888C25.7396 12.8415 25.2559 10.8898 23.7658 10.0295C22.2758 9.16922 20.3437 9.72617 19.4504 11.2735C19.051 11.9651 18.4862 13.5007 18.1166 15.0645C17.6168 15.1112 17.126 15.2527 16.6712 15.4812C15.6276 14.3247 14.4277 13.2979 13.7617 12.9134C12.2716 12.0531 10.3395 12.6101 9.44611 14.1575C8.55277 15.7048 9.03647 17.6565 10.5265 18.5169C11.2179 18.916 12.7965 19.4674 14.3794 19.7891C14.4359 20.2252 14.5618 20.6482 14.7527 21.04C13.5096 22.1807 12.371 23.5353 11.9506 24.2633C11.0573 25.8107 11.541 27.7624 13.031 28.6227C14.5211 29.483 16.4532 28.926 17.3466 27.3786C17.7815 26.6253 18.4129 24.8705 18.7744 23.1687C19.1436 23.1159 19.5059 23.0115 19.8503 22.8585ZM20.3115 20.2608C19.6618 21.3861 18.2566 21.7912 17.1729 21.1655C16.0893 20.5399 15.7374 19.1204 16.3872 17.9951C17.0369 16.8697 18.4421 16.4647 19.5257 17.0903C20.6094 17.716 20.9612 19.1355 20.3115 20.2608Z" fill="white"/>
<path fill-rule="evenodd" clip-rule="evenodd" d="M32.6983 19.2102C32.6983 27.1112 26.2933 33.5161 18.3924 33.5161C10.4914 33.5161 4.08645 27.1112 4.08645 19.2102C4.08645 11.3093 10.4914 4.9043 18.3924 4.9043C26.2933 4.9043 32.6983 11.3093 32.6983 19.2102ZM31.0633 19.2102C31.0633 26.2082 25.3903 31.8812 18.3924 31.8812C11.3944 31.8812 5.72141 26.2082 5.72141 19.2102C5.72141 12.2122 11.3944 6.53926 18.3924 6.53926C25.3903 6.53926 31.0633 12.2122 31.0633 19.2102Z" fill="white"/>
<path d="M37.6037 8.99238H60.4932V7.35742H37.6037V8.99238Z" fill="white"/>
<path d="M60.4932 13.0798H37.6037V11.4448H60.4932V13.0798Z" fill="white"/>
<path d="M37.6037 17.1672H60.4932V15.5322H37.6037V17.1672Z" fill="white"/>
<path d="M60.4932 21.2546H37.6037V19.6196H60.4932V21.2546Z" fill="white"/>
<path d="M37.6037 25.342H51.5009V23.707H37.6037V25.342Z" fill="white"/>
<path d="M60.4942 25.342H53.9544V23.707H60.4942V25.342Z" fill="white"/>
<path fill-rule="evenodd" clip-rule="evenodd" d="M37.6037 27.7944V36.7867H60.4932V27.7944H37.6037ZM39.2387 35.1518V29.4294H58.8582V35.1518H39.2387Z" fill="white"/>
<path fill-rule="evenodd" clip-rule="evenodd" d="M0 0V44.9614H7.35732V49.0488H22.8895V44.9614H42.509V49.0488H58.0411V44.9614H65.3984V0H0ZM1.63496 1.63496H63.7635V40.0565H1.63496V1.63496ZM1.63496 43.3265V41.6915H63.7635V43.3265H1.63496ZM8.99228 47.4139V44.9614H21.2545V47.4139H8.99228ZM56.4062 44.9614V47.4139H44.1439V44.9614H56.4062Z" fill="white"/>
</svg>
