<svg width="43" height="50" viewBox="0 0 43 50" fill="none" xmlns="http://www.w3.org/2000/svg">
<g clip-path="url(#clip0_1899_2464)">
<path d="M26.9888 34.6443L36.9147 17.9667C37.1442 17.5787 37.0528 17.0486 36.7237 16.7781L33.0207 13.7274C32.8729 13.5975 32.6739 13.5346 32.4818 13.5997C32.2987 13.6251 32.1226 13.7785 32.011 13.9522C31.5012 14.7937 30.769 15.3577 29.9118 15.5458C29.0529 15.7349 28.1849 15.5016 27.4697 14.9001C26.7558 14.2991 26.2774 13.436 26.1179 12.4256C25.9574 11.4131 26.1554 10.3898 26.6656 9.54676C26.7758 9.37258 26.8292 9.13795 26.774 8.91151C26.7524 8.69569 26.6223 8.48805 26.4749 8.35656L22.8464 5.28861C22.6987 5.15866 22.4996 5.09579 22.3075 5.16085C22.1154 5.2259 21.9483 5.33966 21.8368 5.51342L11.9446 22.2016L26.9888 34.6443Z" fill="white"/>
<path d="M21.0022 44.2912C21.1853 44.2657 21.3614 44.1123 21.473 43.9386L25.891 36.5132L10.814 24.0605L6.39604 31.4859C6.34478 31.553 6.31812 31.6703 6.30046 31.748C6.22081 32.0984 6.31525 32.4629 6.58582 32.6741L10.2888 35.7248C10.4365 35.8547 10.6356 35.9176 10.8277 35.8525C11.0107 35.8271 11.1869 35.6737 11.2984 35.4999C11.8083 34.6584 12.5404 34.0945 13.3976 33.9064C14.2565 33.7172 15.1246 33.9506 15.8398 34.5521C16.5536 35.1531 17.0321 36.0162 17.1916 37.0266C17.3521 38.0391 17.1541 39.0624 16.6439 39.9054C16.4144 40.2934 16.5058 40.8236 16.835 41.0941L20.5379 44.1447C20.6121 44.2939 20.8188 44.3167 21.0019 44.2913L21.0022 44.2912Z" fill="white"/>
</g>
<defs>
<clipPath id="clip0_1899_2464">
<rect width="39.9955" height="34.6962" fill="white" transform="matrix(-0.221652 0.975126 -0.953564 -0.301192 42.6309 10.4502)"/>
</clipPath>
</defs>
</svg>
